<svg width="24" height="21" viewBox="0 0 24 21" fill="none" xmlns="http://www.w3.org/2000/svg">
<path d="M23.3978 6.14371C22.8727 5.54946 22.1456 5.19291 21.3377 5.19291H18.3081L15.4805 0.399279C15.2381 0.00311079 14.7534 -0.115739 14.3899 0.121961C13.9859 0.359662 13.8647 0.835063 14.1071 1.19161L16.4904 5.19291H7.60361L9.98688 1.19161C10.2292 0.795446 10.0677 0.320045 9.70411 0.121961C9.30017 -0.115739 8.81544 0.0427276 8.61347 0.399279L5.78586 5.19291H2.67549C1.8676 5.19291 1.10011 5.54946 0.615372 6.14371C0.130639 6.73796 -0.111727 7.56991 0.0498503 8.36225L2.19075 18.9003C2.43312 20.1284 3.56416 21 4.81639 21H19.1564C20.449 21 21.5397 20.1284 21.782 18.9003L23.9229 8.36225C24.1249 7.56991 23.9229 6.77758 23.3978 6.14371ZM22.388 8.04532L20.2471 18.5834C20.1663 19.0588 19.7219 19.4153 19.1968 19.4153H4.81639C4.29126 19.4153 3.88732 19.0588 3.76614 18.5834L1.62523 8.04532C1.54444 7.72838 1.62523 7.41145 1.8272 7.17375C2.02918 6.93605 2.31194 6.77758 2.63509 6.77758H4.7356L3.56416 8.75842C3.3218 9.15459 3.48338 9.62999 3.84693 9.82807C3.96811 9.9073 4.12969 9.94692 4.25087 9.94692C4.53363 9.94692 4.81639 9.78845 4.93757 9.55075L6.59375 6.77758H17.2983L18.9544 9.55075C19.116 9.78845 19.3584 9.94692 19.6411 9.94692C19.7623 9.94692 19.9239 9.9073 20.0451 9.82807C20.449 9.59037 20.5702 9.11497 20.3278 8.75842L19.1564 6.77758H21.2569C21.5801 6.77758 21.8628 6.93605 22.0648 7.17375C22.2668 7.41145 22.4284 7.72838 22.388 8.04532Z" fill="white"/>
<path d="M7.56375 11.0957C7.11941 11.0957 6.75586 11.4523 6.75586 11.888V15.0574C6.75586 15.4932 7.11941 15.8497 7.56375 15.8497C8.00809 15.8497 8.37164 15.4932 8.37164 15.0574V11.888C8.37164 11.4523 8.00809 11.0957 7.56375 11.0957Z" fill="white"/>
<path d="M16.4485 11.0957C16.0042 11.0957 15.6406 11.4523 15.6406 11.888V15.0574C15.6406 15.4932 16.0042 15.8497 16.4485 15.8497C16.8929 15.8497 17.2564 15.4932 17.2564 15.0574V11.888C17.2564 11.4523 16.8929 11.0957 16.4485 11.0957Z" fill="white"/>
<path d="M12.0052 11.0957C11.5608 11.0957 11.1973 11.4523 11.1973 11.888V15.0574C11.1973 15.4932 11.5608 15.8497 12.0052 15.8497C12.4495 15.8497 12.813 15.4932 12.813 15.0574V11.888C12.813 11.4523 12.4495 11.0957 12.0052 11.0957Z" fill="white"/>
</svg>
