<svg width="16" height="16" viewBox="0 0 16 16" fill="none" xmlns="http://www.w3.org/2000/svg">
<path d="M9.42629 7.98771L15.7193 1.69471C15.9014 1.50611 16.0022 1.25351 16 0.991311C15.9977 0.729114 15.8925 0.478301 15.7071 0.292893C15.5217 0.107485 15.2709 0.00231622 15.0087 3.78026e-05C14.7465 -0.00224062 14.4939 0.0985537 14.3053 0.280712L8.01229 6.57371L1.71929 0.280712C1.53069 0.0985537 1.27808 -0.00224062 1.01589 3.78026e-05C0.753691 0.00231622 0.502878 0.107485 0.31747 0.292893C0.132062 0.478301 0.0268928 0.729114 0.0246144 0.991311C0.022336 1.25351 0.12313 1.50611 0.305288 1.69471L6.59829 7.98771L0.305288 14.2807C0.209778 14.373 0.133595 14.4833 0.0811864 14.6053C0.0287774 14.7273 0.00119157 14.8585 3.77564e-05 14.9913C-0.00111606 15.1241 0.0241859 15.2558 0.0744668 15.3787C0.124748 15.5016 0.199001 15.6132 0.292893 15.7071C0.386786 15.801 0.498438 15.8753 0.621334 15.9255C0.744231 15.9758 0.87591 16.0011 1.00869 16C1.14147 15.9988 1.27269 15.9712 1.39469 15.9188C1.5167 15.8664 1.62704 15.7902 1.71929 15.6947L8.01229 9.40171L14.3053 15.6947C14.4939 15.8769 14.7465 15.9777 15.0087 15.9754C15.2709 15.9731 15.5217 15.8679 15.7071 15.6825C15.8925 15.4971 15.9977 15.2463 16 14.9841C16.0022 14.7219 15.9014 14.4693 15.7193 14.2807L9.42629 7.98771Z" fill="#C7C7C7"/>
</svg>
