<svg width="68" height="40" viewBox="0 0 68 40" fill="none" xmlns="http://www.w3.org/2000/svg">
<rect width="68" height="40" rx="7" fill="#72BF44"/>
<path d="M48.862 32.9999C48.1164 33.0005 47.3873 32.7782 46.7671 32.3612C46.1468 31.9441 45.6633 31.3511 45.3776 30.6572C45.0918 29.9632 45.0168 29.1994 45.1619 28.4625C45.3071 27.7255 45.6659 27.0485 46.1929 26.517C46.72 25.9855 47.3916 25.6235 48.1229 25.4768C48.8541 25.33 49.6122 25.405 50.3011 25.6924C50.99 25.9798 51.5789 26.4666 51.9932 27.0913C52.4075 27.716 52.6287 28.4504 52.6287 29.2017C52.6282 30.2084 52.2313 31.1738 51.5251 31.8859C50.8189 32.598 49.8611 32.9987 48.862 32.9999ZM48.862 26.7891C48.3883 26.7885 47.9251 26.9296 47.531 27.1943C47.1369 27.4591 46.8296 27.8357 46.6479 28.2765C46.4663 28.7173 46.4185 29.2025 46.5105 29.6707C46.6026 30.1389 46.8305 30.5691 47.1652 30.9068C47.5 31.2445 47.9266 31.4745 48.3911 31.5678C48.8557 31.6611 49.3372 31.6135 49.7749 31.431C50.2126 31.2485 50.5867 30.9392 50.8499 30.5424C51.1131 30.1456 51.2536 29.679 51.2536 29.2017C51.2534 28.5624 51.0014 27.9493 50.553 27.497C50.1047 27.0447 49.4965 26.7901 48.862 26.7891Z" fill="white"/>
<path d="M28.9957 32.9999C28.2501 33.0006 27.5209 32.7785 26.9006 32.3616C26.2802 31.9447 25.7965 31.3518 25.5106 30.6578C25.2248 29.9638 25.1496 29.2 25.2946 28.463C25.4397 27.726 25.7984 27.0489 26.3254 26.5173C26.8524 25.9858 27.524 25.6237 28.2553 25.4768C28.9866 25.33 29.7447 25.405 30.4337 25.6923C31.1227 25.9797 31.7116 26.4665 32.126 27.0912C32.5403 27.7159 32.7615 28.4504 32.7615 29.2017C32.7608 30.2082 32.3639 31.1733 31.6579 31.8853C30.952 32.5974 29.9946 32.9982 28.9957 32.9999ZM28.9957 26.7891C28.522 26.7884 28.0587 26.9292 27.6645 27.1939C27.2703 27.4586 26.9628 27.8351 26.781 28.2759C26.5992 28.7167 26.5513 29.2019 26.6432 29.6702C26.7352 30.1384 26.963 30.5686 27.2977 30.9064C27.6324 31.2442 28.059 31.4744 28.5236 31.5678C28.9882 31.6612 29.4698 31.6136 29.9075 31.4311C30.3452 31.2486 30.7194 30.9394 30.9827 30.5425C31.2459 30.1457 31.3864 29.6791 31.3864 29.2017C31.386 28.5627 31.134 27.9498 30.6859 27.4976C30.2378 27.0453 29.63 26.7906 28.9957 26.7891Z" fill="white"/>
<path d="M53.8212 29.8945H51.9411C51.7587 29.8945 51.5839 29.8215 51.4549 29.6916C51.326 29.5617 51.2536 29.3855 51.2536 29.2018C51.2536 29.018 51.326 28.8418 51.4549 28.7119C51.5839 28.582 51.7587 28.509 51.9411 28.509H53.6269V24.8355C53.6264 24.3389 53.5002 23.8505 53.2602 23.4168L49.5385 16.6933C49.5067 16.6359 49.4603 16.5881 49.404 16.5548C49.3478 16.5215 49.2838 16.504 49.2185 16.5039H44.1465V28.5118H45.7837C45.9661 28.5118 46.1409 28.5848 46.2699 28.7147C46.3988 28.8446 46.4712 29.0208 46.4712 29.2045C46.4712 29.3883 46.3988 29.5645 46.2699 29.6944C46.1409 29.8243 45.9661 29.8973 45.7837 29.8973H43.459C43.2767 29.8973 43.1018 29.8243 42.9729 29.6944C42.8439 29.5645 42.7715 29.3883 42.7715 29.2045V15.8112C42.7715 15.6274 42.8439 15.4512 42.9729 15.3213C43.1018 15.1914 43.2767 15.1184 43.459 15.1184H49.2185C49.5287 15.1183 49.8333 15.2016 50.1008 15.3597C50.3683 15.5179 50.5891 15.7452 50.7402 16.0181L54.4611 22.7425C54.8148 23.3825 55.0006 24.1029 55.001 24.8355V28.7057C55.0005 29.0209 54.876 29.323 54.6549 29.5458C54.4338 29.7686 54.134 29.894 53.8212 29.8945Z" fill="white"/>
<path d="M25.9181 29.8945H19.3262C19.1438 29.8945 18.969 29.8215 18.84 29.6916C18.7111 29.5616 18.6387 29.3854 18.6387 29.2017V23.8739C18.6387 23.6902 18.7111 23.514 18.84 23.3841C18.969 23.2541 19.1438 23.1812 19.3262 23.1812C19.5085 23.1812 19.6834 23.2541 19.8123 23.3841C19.9413 23.514 20.0137 23.6902 20.0137 23.8739V28.5089H25.9181C26.1004 28.5089 26.2753 28.5819 26.4042 28.7118C26.5331 28.8418 26.6056 29.018 26.6056 29.2017C26.6056 29.3854 26.5331 29.5616 26.4042 29.6916C26.2753 29.8215 26.1004 29.8945 25.9181 29.8945Z" fill="white"/>
<path d="M19.3262 21.4161C19.1438 21.4161 18.969 21.3431 18.84 21.2132C18.7111 21.0833 18.6387 20.9071 18.6387 20.7233V16.0717C18.6387 15.8879 18.7111 15.7117 18.84 15.5818C18.969 15.4519 19.1438 15.3789 19.3262 15.3789C19.5085 15.3789 19.6834 15.4519 19.8123 15.5818C19.9413 15.7117 20.0137 15.8879 20.0137 16.0717V20.7261C20.013 20.9093 19.9402 21.0848 19.8114 21.2142C19.6825 21.3435 19.5081 21.4161 19.3262 21.4161Z" fill="white"/>
<path d="M43.4579 29.8946H32.0754C31.8931 29.8946 31.7182 29.8216 31.5893 29.6917C31.4604 29.5618 31.3879 29.3855 31.3879 29.2018C31.3879 29.0181 31.4604 28.8419 31.5893 28.712C31.7182 28.582 31.8931 28.5091 32.0754 28.5091H42.7704V10.3855H20.0137V13.2388C20.0137 13.4225 19.9413 13.5987 19.8123 13.7286C19.6834 13.8585 19.5085 13.9315 19.3262 13.9315C19.1438 13.9315 18.969 13.8585 18.84 13.7286C18.7111 13.5987 18.6387 13.4225 18.6387 13.2388V10.2581C18.6392 9.92439 18.771 9.60454 19.0052 9.36869C19.2395 9.13284 19.557 9.00024 19.8881 9H42.8969C43.2279 9.00049 43.5452 9.13319 43.7792 9.36901C44.0133 9.60484 44.145 9.92455 44.1454 10.2581V29.2018C44.1454 29.3855 44.073 29.5618 43.9441 29.6917C43.8151 29.8216 43.6403 29.8946 43.4579 29.8946Z" fill="white"/>
<path d="M22.0443 24.5667H13.3184C13.136 24.5667 12.9612 24.4937 12.8322 24.3638C12.7033 24.2338 12.6309 24.0576 12.6309 23.8739C12.6309 23.6902 12.7033 23.514 12.8322 23.3841C12.9612 23.2541 13.136 23.1812 13.3184 23.1812H22.0443C22.2266 23.1812 22.4015 23.2541 22.5304 23.3841C22.6594 23.514 22.7318 23.6902 22.7318 23.8739C22.7318 24.0576 22.6594 24.2338 22.5304 24.3638C22.4015 24.4937 22.2266 24.5667 22.0443 24.5667Z" fill="white"/>
<path d="M28.9967 21.416H16.8203C16.638 21.416 16.4631 21.3431 16.3342 21.2131C16.2052 21.0832 16.1328 20.907 16.1328 20.7233C16.1328 20.5395 16.2052 20.3633 16.3342 20.2334C16.4631 20.1035 16.638 20.0305 16.8203 20.0305H28.9967C29.179 20.0305 29.3539 20.1035 29.4828 20.2334C29.6117 20.3633 29.6842 20.5395 29.6842 20.7233C29.6842 20.907 29.6117 21.0832 29.4828 21.2131C29.3539 21.3431 29.179 21.416 28.9967 21.416Z" fill="white"/>
<path d="M16.4424 17.7583H11.6875C11.5052 17.7583 11.3303 17.6853 11.2014 17.5554C11.0724 17.4255 11 17.2493 11 17.0656C11 16.8818 11.0724 16.7056 11.2014 16.5757C11.3303 16.4458 11.5052 16.3728 11.6875 16.3728H16.4424C16.6247 16.3728 16.7996 16.4458 16.9285 16.5757C17.0574 16.7056 17.1299 16.8818 17.1299 17.0656C17.1299 17.2493 17.0574 17.4255 16.9285 17.5554C16.7996 17.6853 16.6247 17.7583 16.4424 17.7583Z" fill="white"/>
<path d="M24.0651 13.9314H15.6719C15.4895 13.9314 15.3147 13.8584 15.1857 13.7285C15.0568 13.5986 14.9844 13.4224 14.9844 13.2387C14.9844 13.0549 15.0568 12.8787 15.1857 12.7488C15.3147 12.6189 15.4895 12.5459 15.6719 12.5459H24.0651C24.2474 12.5459 24.4223 12.6189 24.5512 12.7488C24.6801 12.8787 24.7526 13.0549 24.7526 13.2387C24.7526 13.4224 24.6801 13.5986 24.5512 13.7285C24.4223 13.8584 24.2474 13.9314 24.0651 13.9314Z" fill="white"/>
</svg>
