<svg width="40" height="40" viewBox="0 0 40 40" fill="none" xmlns="http://www.w3.org/2000/svg">
<path d="M20 36C11.16 36 4 28.84 4 20C4 11.16 11.16 4 20 4C28.84 4 36 11.16 36 20C36 28.83 28.83 36 20 36Z" fill="white"/>
<path d="M20 11.57C14.09 11.38 11.54 13.65 11.54 19.46C11.54 23.33 12.81 25.76 15.62 26.79V28.85C15.62 29.53 16.46 29.84 16.91 29.33L18.64 27.35C19.07 27.37 19.53 27.37 20 27.36C25.91 27.55 28.46 24.96 28.46 19.47C28.46 13.66 25.91 11.38 20 11.57ZM25.62 24.46C24.6 25.5 22.96 26.01 20.6 26.01C20.42 26.01 20.23 26.01 20.04 26H20H19.96C19.91 26 19.86 26 19.81 26C19.67 26 19.54 26.01 19.4 26.01C19.22 26.01 19.05 26.01 18.88 26L18.9 26.01L17.79 27.28L16.38 28.89C16.31 28.97 16.18 28.92 16.18 28.82V26.98V25.57C15.98 25.5 15.79 25.42 15.62 25.34C13.72 24.43 12.89 22.55 12.89 19.47C12.89 17.04 13.37 15.37 14.35 14.38C15.32 13.4 16.95 12.92 19.32 12.92C19.52 12.92 19.73 12.92 19.95 12.93H19.99H20.03C20.24 12.92 20.46 12.92 20.66 12.92C23.03 12.92 24.66 13.4 25.63 14.38C26.61 15.37 27.09 17.04 27.09 19.47C27.1 21.8 26.62 23.43 25.62 24.46Z" fill="#72BF44"/>
<path d="M21.921 18.9902C21.871 19.0402 21.811 19.0602 21.741 19.0602C21.621 19.0502 21.521 18.9402 21.531 18.8202C21.551 18.5402 21.451 18.2602 21.251 18.0502C21.051 17.8502 20.771 17.7502 20.481 17.7702C20.361 17.7802 20.251 17.6902 20.241 17.5602C20.231 17.4402 20.321 17.3302 20.451 17.3202C20.871 17.2902 21.271 17.4402 21.571 17.7302C21.871 18.0202 22.021 18.4302 21.981 18.8502C21.981 18.9102 21.961 18.9602 21.921 18.9902Z" fill="#72BF44"/>
<path d="M23.0011 19.3404C22.9511 19.3904 22.8911 19.4104 22.8211 19.4104C22.7011 19.4004 22.6011 19.2904 22.6111 19.1704C22.6611 18.5004 22.4211 17.8404 21.9411 17.3704C21.4611 16.8904 20.8111 16.6504 20.1411 16.7004C20.0211 16.7104 19.9111 16.6204 19.9011 16.4904C19.8911 16.3704 19.9811 16.2604 20.1111 16.2504C20.9111 16.1904 21.7011 16.4804 22.2711 17.0504C22.8411 17.6204 23.1311 18.4104 23.0711 19.2104C23.0611 19.2604 23.0311 19.3104 23.0011 19.3404Z" fill="#72BF44"/>
<path d="M24.1008 19.7302C24.0508 19.7802 23.9908 19.8002 23.9208 19.8002C23.8008 19.7902 23.7008 19.6802 23.7108 19.5602C23.7908 18.4802 23.4108 17.4302 22.6408 16.6702C21.8808 15.9102 20.8208 15.5202 19.7408 15.6002C19.6208 15.6102 19.5108 15.5202 19.5008 15.3902C19.4908 15.2702 19.5808 15.1602 19.7108 15.1502C20.9208 15.0502 22.1008 15.4902 22.9608 16.3502C23.8208 17.2102 24.2508 18.3902 24.1608 19.6002C24.1708 19.6402 24.1408 19.6902 24.1008 19.7302Z" fill="#72BF44"/>
<path d="M22.4805 21.1305L22.3705 21.0505C22.1605 20.9005 21.8705 20.8705 21.6305 20.9905C21.3305 21.1305 21.2205 21.4905 20.9305 21.6405C20.7605 21.7205 20.5705 21.7305 20.3905 21.6805C20.0805 21.6005 19.7905 21.4205 19.5305 21.2405C19.2905 21.0805 19.0605 20.9005 18.8605 20.7005C18.6605 20.4905 18.4805 20.2705 18.3205 20.0305C18.1405 19.7705 17.9505 19.4805 17.8805 19.1705C17.8405 18.9905 17.8405 18.8005 17.9205 18.6305C18.0705 18.3405 18.4205 18.2205 18.5705 17.9305C18.6905 17.6905 18.6605 17.4005 18.5105 17.1905L18.4305 17.0805C18.1005 16.6605 17.7705 16.2305 17.4405 15.8105C17.2005 15.5105 16.7605 15.4305 16.4605 15.7305L15.8905 16.3005C15.6005 16.5905 15.4705 17.0105 15.5705 17.4005C15.6005 17.5005 15.6305 17.6005 15.6605 17.6905C15.7505 17.9605 15.8705 18.2205 15.9905 18.4805C16.5105 19.5805 17.1305 20.6505 17.9805 21.5205C18.8405 22.4005 19.9805 23.0605 21.0905 23.5905C21.3505 23.7105 21.6105 23.8305 21.8805 23.9205C21.9805 23.9505 22.0805 23.9805 22.1805 24.0105C22.5705 24.1105 22.9905 23.9805 23.2805 23.6905L23.8505 23.1205C24.1505 22.8205 24.0805 22.3805 23.7705 22.1405C23.3305 21.7905 22.9005 21.4605 22.4805 21.1305Z" fill="#72BF44"/>
</svg>
